<svg xmlns="http://www.w3.org/2000/svg" fill="none" viewBox="0 0 394 80">
<path d="M262 0h68.5v12.7h-27.2c-4.4 0-8.5 1.6-11.5 4.6-3 3-4.6 7.1-4.6 11.5v51.1h-13.6V28.8c0-8.5 3.2-16.6 9.1-22.6C253.4.2 261.5-3 262 0zM149.6 0v12.7H94v20.9h44.3v12.6H94v21h55.5v12.6H80.5V0h69.1zm34.3 0h-13.6l63.8 79.4h13.5L183.9 0zm78.3 56.7c0 23.2 18.5 41.9 41.9 41.9s41.9-18.7 41.9-41.9-18.5-41.9-41.9-41.9-41.9 18.7-41.9 41.9zm13.6 0c0-15.6 12.7-28.3 28.3-28.3s28.3 12.7 28.3 28.3-12.7 28.3-28.3 28.3-28.3-12.7-28.3-28.3zM34.3 0H48l43.2 53.4V0h13.6v79.4H62.5L19.3 26V79.4H5.7V0z" fill="black"/>
<path d="M81.5 42.1c0-11.3 9.2-20.5 20.5-20.5s20.5 9.2 20.5 20.5-9.2 20.5-20.5 20.5-20.5-9.2-20.5-20.5zm6.8 0c0 7.6 6.2 13.8 13.8 13.8s13.8-6.2 13.8-13.8-6.2-13.8-13.8-13.8-13.8 6.2-13.8 13.8z" fill="black"/>
<path d="M394 0h-12.8l-6.4 19.2-6.4-19.2h-12.8l9.6 28.8V79.4h13.6V28.8L394 0z" fill="black"/>
</svg> 